<svg xmlns="http://www.w3.org/2000/svg" viewBox="0 0 38 11">
  <path fill="#E8E8E8" d="M22 0h16v11H22z"/>
  <path fill="#DB3B43" d="M23 7h14v3H23z"/>
  <path fill="#0167B2" d="M23 4h14v3H23z"/>
  <path fill="#FFF" d="M23 1h14v3H23z"/>
  <path d="M5.38 9.558h-.927l-.605-1.73a1.755 1.755 0 0 0-.22-.41c-.09-.127-.197-.235-.317-.326s-.253-.162-.402-.212a1.452 1.452 0 0 0-.47-.076H.854v2.754H0V3.112h2.856c.173 0 .337.004.493.012.155.01.304.026.445.055.143.025.276.066.403.122s.246.132.36.23c.195.172.344.38.444.624s.15.496.15.757c0 .225-.032.432-.1.62-.065.19-.16.357-.285.503-.127.147-.28.27-.458.37s-.38.174-.607.216v.015c.45.14.794.53 1.035 1.167l.64 1.753zM.855 6.032H2.77c.263 0 .49-.02.68-.06.19-.038.347-.102.47-.19a.78.78 0 0 0 .268-.345c.058-.144.086-.317.086-.522 0-.37-.114-.646-.342-.823-.227-.178-.573-.267-1.034-.267H.854v2.207zM9.038 9.67c-.397 0-.735-.04-1.016-.12a2.202 2.202 0 0 1-.703-.326c-.19-.14-.34-.3-.446-.487s-.188-.383-.244-.593a3.39 3.39 0 0 1-.104-.65 9.734 9.734 0 0 1-.022-.656V3.112h.854v3.71c0 .434.037.785.112 1.056s.183.48.325.633c.14.15.316.256.524.31s.445.085.716.085c.273 0 .515-.027.723-.083s.382-.158.524-.312c.14-.153.248-.364.32-.635s.106-.62.106-1.05v-3.71h.86V6.84c0 .446-.038.844-.114 1.194a2.19 2.19 0 0 1-.4.89c-.19.24-.45.427-.777.556-.327.127-.74.192-1.243.192zm6.406 0a4.01 4.01 0 0 1-1.193-.16 2.456 2.456 0 0 1-.85-.452c-.225-.194-.396-.425-.514-.69s-.18-.563-.19-.885h.82c.022.244.088.456.195.635s.246.327.414.444c.167.117.36.203.578.26s.452.082.7.082c.24 0 .46-.025.656-.076.196-.05.365-.123.505-.22.14-.096.25-.21.326-.347a.91.91 0 0 0 .113-.454.915.915 0 0 0-.104-.45.89.89 0 0 0-.343-.32 2.804 2.804 0 0 0-.62-.248c-.256-.072-.57-.148-.945-.227a5.922 5.922 0 0 1-.936-.28 2.363 2.363 0 0 1-.645-.37c-.17-.14-.293-.304-.374-.486s-.122-.394-.122-.635c0-.258.056-.496.166-.717.11-.22.266-.408.468-.566.202-.157.443-.28.725-.37.284-.09.595-.136.937-.136.36 0 .69.045.988.133.3.088.556.216.77.383.218.168.388.37.51.61s.187.51.197.814h-.825c-.088-.78-.622-1.168-1.602-1.168-.48 0-.848.09-1.105.267a.824.824 0 0 0-.39.72c0 .135.024.25.07.347.05.097.13.182.245.254.116.075.27.14.457.2.188.06.425.12.708.18.192.04.39.08.593.127.204.046.402.102.596.168.194.067.377.147.547.242.17.095.32.208.447.342.13.133.23.29.306.473s.112.396.112.64c0 .283-.06.544-.178.78-.12.238-.285.442-.498.614-.215.17-.468.304-.76.4-.293.094-.61.142-.957.142z"/>
</svg>